<svg width="62" height="62" viewBox="0 0 62 62" fill="none" xmlns="http://www.w3.org/2000/svg">
									<path d="M34.1007 40.3C34.6722 40.3 35.134 39.8371 35.134 39.2667V24.8H38.234C41.0828 24.8 43.4007 22.4823 43.4007 19.6333C43.4007 16.7844 41.083 14.4666 38.234 14.4666C35.3852 14.4666 33.0673 16.7843 33.0673 19.6333V22.7333H28.9341V19.6333C28.9341 16.7844 26.6164 14.4666 23.7674 14.4666C20.9186 14.4666 18.6007 16.7843 18.6007 19.6333C18.6007 22.4821 20.9184 24.8 23.7674 24.8H26.8674V39.2667C26.8674 39.8371 27.3303 40.3 27.9007 40.3C28.471 40.3 28.9339 39.8371 28.9339 39.2667V24.8H33.0672V39.2667C33.0675 39.8371 33.5293 40.3 34.1007 40.3ZM35.134 19.6333C35.134 17.9242 36.5249 16.5333 38.234 16.5333C39.9431 16.5333 41.334 17.9242 41.334 19.6333C41.334 21.3424 39.9431 22.7333 38.234 22.7333H35.134V19.6333ZM26.8675 22.7333H23.7675C22.0584 22.7333 20.6675 21.3424 20.6675 19.6333C20.6675 17.9242 22.0584 16.5333 23.7675 16.5333C25.4766 16.5333 26.8675 17.9242 26.8675 19.6333V22.7333Z" fill="url(#paint0_linears)"></path>
									<path d="M7.37861 2.19783L11.3342 5.51798C11.5285 5.68122 11.7641 5.75981 11.9987 5.75981C12.2932 5.75981 12.5866 5.63472 12.7901 5.39095C13.1569 4.95381 13.1001 4.30184 12.663 3.93504L8.70749 0.614775C8.27034 0.248951 7.61935 0.305865 7.25159 0.741923C6.88468 1.18004 6.94147 1.83104 7.37861 2.19783Z" fill="url(#lmp1)"></path>
									<path d="M8.04737 11.2147L3.19383 9.44883C2.65751 9.25459 2.06548 9.53045 1.86907 10.0668C1.67484 10.6031 1.95069 11.1962 2.48701 11.3915L7.34055 13.1575C7.45728 13.1998 7.57619 13.2205 7.69389 13.2205C8.11554 13.2205 8.51224 12.9591 8.66518 12.5396C8.86063 12.0032 8.58369 11.4101 8.04737 11.2147Z" fill="url(#lmp2)"></path>
									<path d="M49.9993 5.75983C50.2328 5.75983 50.4685 5.68027 50.6617 5.518L54.6194 2.1958C55.0566 1.829 55.1143 1.178 54.7466 0.739888C54.3828 0.304798 53.7308 0.245946 53.2916 0.612739L49.3339 3.93495C48.8968 4.30174 48.84 4.95274 49.2068 5.39086C49.4103 5.63377 49.7038 5.75983 49.9993 5.75983Z" fill="url(#lmp3)"></path>
									<path d="M6.19791 19.6353H1.03329C0.462939 19.6353 0 20.0982 0 20.6686C0 21.2389 0.462939 21.7019 1.03329 21.7019H6.19791C6.76825 21.7019 7.23119 21.2389 7.23119 20.6686C7.23119 20.0982 6.76825 19.6353 6.19791 19.6353Z" fill="url(#lmp4)"></path>
									<path d="M60.1289 10.0636C59.9347 9.52839 59.3405 9.25036 58.8053 9.44678L53.9506 11.2138C53.4134 11.4091 53.1374 12.0022 53.3327 12.5385C53.4857 12.9581 53.8814 13.2185 54.304 13.2185C54.4207 13.2185 54.5406 13.1989 54.6564 13.1554L59.512 11.3884C60.0483 11.1931 60.3252 10.6 60.1289 10.0636Z" fill="url(#lmp5)"></path>
									<path d="M30.9996 0C19.604 0 10.333 9.27106 10.333 20.6667C10.333 29.388 13.7532 35.8939 21.0992 41.1411C21.1344 41.1659 21.1861 41.1969 21.2243 41.2175C21.2781 41.2465 22.39 41.8674 22.669 43.6097C21.5024 44.0551 20.6663 45.1784 20.6663 46.5C20.6663 47.2937 20.966 48.018 21.4578 48.5667C20.9659 49.1154 20.6663 49.8398 20.6663 50.6334C20.6663 51.4271 20.966 52.1513 21.4578 52.7001C20.9659 53.2488 20.6663 53.9732 20.6663 54.7668C20.6663 56.4759 22.0572 57.8668 23.7663 57.8668C24.3367 57.8668 24.7996 57.4039 24.7996 56.8335C24.7996 56.2632 24.3367 55.8002 23.7663 55.8002C23.1969 55.8002 22.733 55.3363 22.733 54.767C22.733 54.1976 23.1969 53.7337 23.7663 53.7337H34.0995C34.671 53.7337 35.1328 53.2707 35.1328 52.7004C35.1328 52.13 34.671 51.6671 34.0995 51.6671H23.7663C23.1969 51.6671 22.733 51.2032 22.733 50.6338C22.733 50.0644 23.1969 49.6005 23.7663 49.6005H34.0995C34.671 49.6005 35.1328 49.1375 35.1328 48.5672C35.1328 47.9968 34.671 47.5339 34.0995 47.5339H23.7663C23.1969 47.5339 22.733 47.07 22.733 46.5006C22.733 45.9312 23.1969 45.4673 23.7663 45.4673H34.0995C34.671 45.4673 35.1328 45.0044 35.1328 44.434C35.1328 43.8637 34.671 43.4007 34.0995 43.4007H24.7294C24.3635 40.7988 22.6772 39.6714 22.2546 39.4275C15.4387 34.543 12.3998 28.7553 12.3998 20.6673C12.3998 10.4115 20.7439 2.06731 30.9997 2.06731C41.2554 2.06731 49.5996 10.4115 49.5996 20.6673C49.5996 28.7552 46.5605 34.543 39.7448 39.4275C39.2695 39.7013 37.1996 41.0912 37.1996 44.434C37.1996 45.0044 37.6615 45.4673 38.2329 45.4673C38.8033 45.4673 39.2662 45.9312 39.2662 46.5006C39.2662 47.07 38.8033 47.5339 38.2329 47.5339C37.6615 47.5339 37.1996 47.9968 37.1996 48.5672C37.1996 49.1375 37.6615 49.6005 38.2329 49.6005C38.8033 49.6005 39.2662 50.0644 39.2662 50.6338C39.2662 51.2032 38.8033 51.6671 38.2329 51.6671C37.6615 51.6671 37.1996 52.13 37.1996 52.7004C37.1996 53.2707 37.6615 53.7337 38.2329 53.7337C38.8033 53.7337 39.2662 54.1976 39.2662 54.767C39.2662 55.356 38.8219 55.8002 38.2329 55.8002H27.8996C27.3292 55.8002 26.8663 56.2632 26.8663 56.8335V58.9C26.8663 60.6091 28.2572 62 29.9663 62H32.033C33.7421 62 35.1329 60.6091 35.1329 58.9V57.8667H38.2329C39.9721 57.8667 41.3329 56.5048 41.3329 54.7667C41.3329 53.9731 41.0332 53.2488 40.5413 52.7C41.0332 52.1513 41.3329 51.4269 41.3329 50.6333C41.3329 49.8396 41.0332 49.1154 40.5413 48.5666C41.0332 48.0179 41.3329 47.2935 41.3329 46.4999C41.3329 45.1783 40.4969 44.055 39.3293 43.6096C39.6083 41.8674 40.7191 41.2474 40.7615 41.2237C40.81 41.2 40.8565 41.172 40.8999 41.141C48.2448 35.8938 51.6661 29.3879 51.6661 20.6666C51.6661 9.27106 42.3951 0 30.9996 0ZM33.0663 58.9C33.0663 59.4694 32.6033 59.9333 32.033 59.9333H29.9663C29.3969 59.9333 28.933 59.4694 28.933 58.9V57.8667H33.0663V58.9Z" fill="url(#lmp6)"></path>
									<path d="M60.9667 19.6333H55.8C55.2286 19.6333 54.7668 20.0962 54.7668 20.6666C54.7668 21.2369 55.2286 21.6999 55.8 21.6999H60.9667C61.5382 21.6999 62 21.2369 62 20.6666C62 20.0962 61.5382 19.6333 60.9667 19.6333Z" fill="url(#lmp7)"></path>
									<defs>
									<linearGradient id="paint0_linears" x1="62.1409" y1="33.0684" x2="-0.00294844" y2="33.0684" gradientUnits="userSpaceOnUse">
									<stop offset="0" stop-color="var(--main_color)"></stop>
									<stop offset="1" stop-color="var(--main_color_2)"></stop>
									</linearGradient>
									<linearGradient id="lmp1" x1="62.1409" y1="33.0684" x2="-0.00294844" y2="33.0684" gradientUnits="userSpaceOnUse">
									<stop offset="0" stop-color="var(--main_color)"></stop>
									<stop offset="1" stop-color="var(--main_color_2)"></stop>
									</linearGradient>
									<linearGradient id="lmp2" x1="62.1409" y1="33.0684" x2="-0.00294844" y2="33.0684" gradientUnits="userSpaceOnUse">
									<stop offset="0" stop-color="var(--main_color)"></stop>
									<stop offset="1" stop-color="var(--main_color_2)"></stop>
									</linearGradient>
									<linearGradient id="lmp3" x1="62.1409" y1="33.0684" x2="-0.00294844" y2="33.0684" gradientUnits="userSpaceOnUse">
									<stop offset="0" stop-color="var(--main_color)"></stop>
									<stop offset="1" stop-color="var(--main_color_2)"></stop>
									</linearGradient>
									<linearGradient id="lmp4" x1="62.1409" y1="33.0684" x2="-0.00294844" y2="33.0684" gradientUnits="userSpaceOnUse">
									<stop offset="0" stop-color="var(--main_color)"></stop>
									<stop offset="1" stop-color="var(--main_color_2)"></stop>
									</linearGradient>
									<linearGradient id="lmp5" x1="62.1409" y1="33.0684" x2="-0.00294844" y2="33.0684" gradientUnits="userSpaceOnUse">
									<stop offset="0" stop-color="var(--main_color)"></stop>
									<stop offset="1" stop-color="var(--main_color_2)"></stop>
									</linearGradient>
									<linearGradient id="lmp6" x1="62.1409" y1="33.0684" x2="-0.00294844" y2="33.0684" gradientUnits="userSpaceOnUse">
									<stop offset="0" stop-color="var(--main_color)"></stop>
									<stop offset="1" stop-color="var(--main_color_2)"></stop>
									</linearGradient>
									<linearGradient id="lmp7" x1="62.1409" y1="33.0684" x2="-0.00294844" y2="33.0684" gradientUnits="userSpaceOnUse">
									<stop offset="0" stop-color="var(--main_color)"></stop>
									<stop offset="1" stop-color="var(--main_color_2)"></stop>
									</linearGradient>
									</defs>
									</svg>