<svg width="24" height="25" viewBox="0 0 24 25" xmlns="http://www.w3.org/2000/svg"><path d="M12.7031 12.1953V1.17969C12.7031 0.992188 12.6328 0.835938 12.4922 0.710938C12.3672 0.570312 12.2109 0.5 12.0234 0.5C11.8359 0.5 11.6719 0.570312 11.5312 0.710938C11.4062 0.835938 11.3438 0.992188 11.3438 1.17969V12.1953C10.5625 12.3516 9.90625 12.7422 9.375 13.3672C8.85938 13.9922 8.60156 14.7188 8.60156 15.5469C8.60156 16.375 8.85938 17.1094 9.375 17.75C9.90625 18.375 10.5625 18.7656 11.3438 18.9219V23.8203C11.3438 24.0078 11.4062 24.1641 11.5312 24.2891C11.6719 24.4297 11.8359 24.5 12.0234 24.5C12.2109 24.5 12.3672 24.4297 12.4922 24.2891C12.6328 24.1641 12.7031 24.0078 12.7031 23.8203V18.9219C13.4844 18.7656 14.1328 18.375 14.6484 17.75C15.1797 17.1094 15.4453 16.375 15.4453 15.5469C15.4453 14.7188 15.1797 13.9922 14.6484 13.3672C14.1328 12.7422 13.4844 12.3516 12.7031 12.1953ZM12.0234 17.6328C11.4453 17.6328 10.9531 17.4297 10.5469 17.0234C10.1562 16.6172 9.96094 16.125 9.96094 15.5469C9.96094 14.9844 10.1562 14.5 10.5469 14.0938C10.9531 13.6875 11.4453 13.4844 12.0234 13.4844C12.6016 13.4844 13.0938 13.6875 13.5 14.0938C13.9062 14.5 14.1094 14.9844 14.1094 15.5469C14.1094 16.125 13.9062 16.6172 13.5 17.0234C13.0938 17.4297 12.6016 17.6328 12.0234 17.6328ZM4.42969 6.54688V1.17969C4.42969 0.992188 4.36719 0.835938 4.24219 0.710938C4.11719 0.570312 3.96094 0.5 3.77344 0.5C3.58594 0.5 3.42188 0.570312 3.28125 0.710938C3.15625 0.835938 3.09375 0.992188 3.09375 1.17969V6.54688C2.3125 6.70312 1.65625 7.09375 1.125 7.71875C0.609375 8.34375 0.351562 9.07031 0.351562 9.89844C0.351562 10.7266 0.609375 11.4531 1.125 12.0781C1.65625 12.7031 2.3125 13.0938 3.09375 13.25V23.8203C3.09375 24.0078 3.15625 24.1641 3.28125 24.2891C3.42188 24.4297 3.58594 24.5 3.77344 24.5C3.96094 24.5 4.11719 24.4297 4.24219 24.2891C4.36719 24.1641 4.42969 24.0078 4.42969 23.8203V13.25C5.21094 13.0938 5.86719 12.7031 6.39844 12.0781C6.92969 11.4531 7.19531 10.7266 7.19531 9.89844C7.19531 9.07031 6.92969 8.34375 6.39844 7.71875C5.86719 7.09375 5.21094 6.70312 4.42969 6.54688ZM3.77344 11.9844C3.19531 11.9844 2.70312 11.7812 2.29688 11.375C1.89062 10.9688 1.6875 10.4766 1.6875 9.89844C1.6875 9.32031 1.89062 8.83594 2.29688 8.44531C2.70312 8.03906 3.19531 7.83594 3.77344 7.83594C4.33594 7.83594 4.82031 8.03906 5.22656 8.44531C5.63281 8.83594 5.83594 9.32031 5.83594 9.89844C5.83594 10.4766 5.63281 10.9688 5.22656 11.375C4.82031 11.7812 4.33594 11.9844 3.77344 11.9844ZM20.9062 6.54688V1.17969C20.9062 0.992188 20.8359 0.835938 20.6953 0.710938C20.5703 0.570312 20.4141 0.5 20.2266 0.5C20.0391 0.5 19.8828 0.570312 19.7578 0.710938C19.6328 0.835938 19.5703 0.992188 19.5703 1.17969V6.54688C18.7891 6.70312 18.1328 7.09375 17.6016 7.71875C17.0703 8.34375 16.8047 9.07031 16.8047 9.89844C16.8047 10.7266 17.0703 11.4531 17.6016 12.0781C18.1328 12.7031 18.7891 13.0938 19.5703 13.25V23.8203C19.5703 24.0078 19.6328 24.1641 19.7578 24.2891C19.8828 24.4297 20.0391 24.5 20.2266 24.5C20.4141 24.5 20.5703 24.4297 20.6953 24.2891C20.8359 24.1641 20.9062 24.0078 20.9062 23.8203V13.25C21.6875 13.0938 22.3359 12.7031 22.8516 12.0781C23.3828 11.4531 23.6484 10.7266 23.6484 9.89844C23.6484 9.07031 23.3828 8.34375 22.8516 7.71875C22.3359 7.09375 21.6875 6.70312 20.9062 6.54688ZM20.2266 11.9844C19.6641 11.9844 19.1797 11.7812 18.7734 11.375C18.3672 10.9688 18.1641 10.4766 18.1641 9.89844C18.1641 9.32031 18.3672 8.83594 18.7734 8.44531C19.1797 8.03906 19.6641 7.83594 20.2266 7.83594C20.8047 7.83594 21.2969 8.03906 21.7031 8.44531C22.1094 8.83594 22.3125 9.32031 22.3125 9.89844C22.3125 10.4766 22.1094 10.9688 21.7031 11.375C21.2969 11.7812 20.8047 11.9844 20.2266 11.9844Z"></path></svg>