<svg width="54" height="54" viewBox="0 0 54 54" fill="none" xmlns="http://www.w3.org/2000/svg">
									<path d="M47.5094 0.000488281H6.49062C3.35389 0.000488281 0 1.69211 0 6.45505V47.5459C0 52.3449 3.35389 54.0005 6.49062 54.0005H47.5094C50.6461 54.0005 54 52.3089 54 47.5579V6.45505C54 1.69211 50.6461 0.000488281 47.5094 0.000488281ZM13.2225 51.589H6.49062C4.63271 51.589 2.42493 50.8812 2.42493 47.5459V17.3966H9.45845V35.7885C9.45845 36.4511 9.99863 36.9883 10.6649 36.9883H13.2225V51.589ZM11.8713 34.5888V17.3966H16.9987V34.5888H11.8713ZM25.7936 51.589H15.6354V36.9883H18.193C18.8593 36.9883 19.3995 36.4511 19.3995 35.7885V17.3966H22.0174V35.7885C22.0174 36.4511 22.5576 36.9883 23.2239 36.9883H25.7936V51.589ZM24.4424 34.5888V17.3966H29.5697V34.5888H24.4424ZM38.3646 51.589H28.2064V36.9883H30.7761C31.4424 36.9883 31.9826 36.4511 31.9826 35.7885V17.3966H34.6005V35.7885C34.6005 36.4511 35.1407 36.9883 35.807 36.9883H38.3646V51.589ZM37.0013 34.5888V17.3966H42.1287V34.5888H37.0013ZM47.5094 51.601H40.7775V36.9883H43.3351C44.0014 36.9883 44.5416 36.4511 44.5416 35.7885V17.3966H51.5751V47.5459C51.5751 50.8932 49.3552 51.601 47.5094 51.601ZM51.5751 15.0092H2.42493V6.45505C2.42493 3.1078 4.64477 2.41195 6.50268 2.41195H47.5094C49.3673 2.41195 51.5871 3.1198 51.5871 6.46705L51.5751 15.0092Z" fill="url(#paint44_linear)"></path>
									<path d="M8.62607 4.55957C6.40065 4.55957 4.59658 6.35362 4.59658 8.56668C4.59658 10.7797 6.40065 12.5738 8.62607 12.5738C10.8515 12.5738 12.6556 10.7797 12.6556 8.56668C12.6489 6.35632 10.8488 4.56617 8.62607 4.55957ZM8.62607 10.1983V10.1863C7.73316 10.1863 7.00945 9.46663 7.00945 8.57867C7.00945 7.69072 7.73316 6.97103 8.62607 6.97103C9.51883 6.97103 10.2427 7.69072 10.2427 8.57867C10.2427 9.46858 9.52079 10.1917 8.62607 10.1983Z" fill="url(#paint1_linear)"></path>
									<path d="M18.2051 4.55957C15.9797 4.55957 14.1757 6.35362 14.1757 8.56668C14.1757 10.7797 15.9797 12.5738 18.2051 12.5738C20.4306 12.5738 22.2346 10.7797 22.2346 8.56668C22.228 6.35632 20.4279 4.56617 18.2051 4.55957ZM18.2051 10.1983V10.1863C17.3124 10.1863 16.5885 9.46648 16.5885 8.57867C16.5885 7.69072 17.3122 6.97103 18.2051 6.97103C19.0981 6.97103 19.8218 7.69072 19.8218 8.57867C19.8218 9.46858 19.0999 10.1917 18.2051 10.1983Z" fill="url(#paint2_linear)"></path>
									<defs>
									<linearGradient id="paint44_linear" x1="54.1228" y1="28.802" x2="-0.00256799" y2="28.802" gradientUnits="userSpaceOnUse">
									<stop offset="0" stop-color="var(--main_color)"></stop>
									<stop offset="1" stop-color="var(--main_color_2)"></stop>
									</linearGradient>
									<linearGradient id="paint1_linear" x1="54.1228" y1="28.802" x2="-0.00256799" y2="28.802" gradientUnits="userSpaceOnUse">
									<stop offset="0" stop-color="var(--main_color)"></stop>
									<stop offset="1" stop-color="var(--main_color_2)"></stop>
									</linearGradient>
									<linearGradient id="paint2_linear" x1="54.1228" y1="28.802" x2="-0.00256799" y2="28.802" gradientUnits="userSpaceOnUse">
									<stop offset="0" stop-color="var(--main_color)"></stop>
									<stop offset="1" stop-color="var(--main_color_2)"></stop>
									</linearGradient>
									</defs>
									</svg>