<svg width="10" height="20" viewBox="0 0 10 20" xmlns="http://www.w3.org/2000/svg">
									<path d="M6.21094 6.5625V4.82422C6.21094 4.69401 6.21094 4.58333 6.21094 4.49219C6.22396 4.38802 6.23698 4.30339 6.25 4.23828C6.26302 4.16016 6.28255 4.08854 6.30859 4.02344C6.33464 3.94531 6.36719 3.8737 6.40625 3.80859C6.44531 3.74349 6.4974 3.69141 6.5625 3.65234C6.64062 3.60026 6.72526 3.5612 6.81641 3.53516C6.92057 3.49609 7.03125 3.47005 7.14844 3.45703C7.27865 3.44401 7.42188 3.4375 7.57812 3.4375H9.29688V0H6.54297C5.7487 0 5.0651 0.0976562 4.49219 0.292969C3.91927 0.47526 3.45703 0.755208 3.10547 1.13281C2.76693 1.51042 2.50651 1.97917 2.32422 2.53906C2.15495 3.09896 2.07031 3.74349 2.07031 4.47266V6.5625H0V10H2.07031V20H6.21094V10H8.96484L9.33594 6.5625H6.21094Z"></path>
									</svg>