<svg width="58" height="58" viewBox="0 0 58 58" fill="none" xmlns="http://www.w3.org/2000/svg">
									<path d="M53.2729 39.4259C53.0132 38.6294 52.6899 37.5048 52.3194 36.2185C50.7817 30.8899 49.3657 26.259 47.8456 23.972C53.5887 23.0409 58 18.0856 58 12.0839C58 5.42145 52.579 0.000488281 45.9166 0.000488281C39.2542 0.000488281 33.8334 5.42145 33.8334 12.0839C33.8334 12.6864 33.9257 13.2641 34.0112 13.8432L27.3146 21.5517C26.9318 21.372 26.55 21.2364 26.175 21.1593C25.0209 20.9174 24.032 21.1947 23.265 21.9405C21.7019 23.4596 21.5101 25.5569 22.0047 27.6647L11.1229 40.1941C10.1835 41.2526 9.66674 42.6132 9.66674 44.0268C9.66674 45.455 10.2019 46.7923 11.1465 47.8534C10.2816 49.3891 8.91591 50.3926 7.01415 50.7742C0.0802031 52.1606 0 56.6034 0 56.7921C0 57.4482 0.523926 57.9698 1.18005 57.9851C1.18945 57.9851 1.19897 57.9862 1.20837 57.9862C1.85271 57.9862 2.38604 57.4647 2.41674 56.8179C2.4215 56.7082 2.59607 54.1216 7.48608 53.1433C10.2947 52.5815 11.9674 51.0993 12.9596 49.6042C13.925 50.3354 15.0831 50.7505 16.3125 50.7505C17.8017 50.7505 19.2036 50.1699 20.2608 49.1149L27.6905 41.6853C27.8119 43.1033 28.1955 44.7186 30.1446 47.3214C31.4048 49.004 33.045 49.9682 34.7797 50.9888C37.1539 52.3859 39.6083 53.8303 41.7465 57.4117C41.9661 57.7774 42.3602 58.0005 42.785 58.0005C53.9101 58.0005 57.8773 48.2713 57.9152 48.1733C58.0757 47.7686 58.0049 47.3096 57.7334 46.9709C57.6979 46.9296 54.3561 42.763 53.2729 39.4259ZM45.9166 2.41712C51.248 2.41712 55.5833 6.75364 55.5833 12.0837C55.5833 14.3133 54.7938 16.3433 53.5211 17.9806L40.0203 4.47895C41.6573 3.20646 43.687 2.41712 45.9166 2.41712ZM38.3116 6.18757L51.8125 19.6893C50.1757 20.9615 48.146 21.7505 45.9166 21.7505C40.5854 21.7505 36.25 17.414 36.25 12.0839C36.25 9.85448 37.0391 7.82471 38.3116 6.18757ZM34.7523 16.6789C36.1194 19.9874 38.9291 22.5113 42.3799 23.5775L34.8863 31.072C34.3155 30.058 33.8043 28.9893 33.3967 28.0069C32.8397 26.6703 31.2199 24.4663 29.3457 22.9021L34.7523 16.6789ZM39.0585 32.8272C38.9216 33.0668 38.8036 33.3276 38.6832 33.5954C38.4778 34.0497 38.2536 34.5465 37.9445 34.9347C37.3668 34.5322 36.7864 33.8967 36.2272 33.1483L38.4004 30.975C38.6108 31.6089 38.845 32.2855 39.0585 32.8272ZM18.5522 47.4052C17.3533 48.604 15.2718 48.604 14.0728 47.4052L13.4977 46.8306C13.4946 46.8273 13.4913 46.8246 13.4883 46.8213L13.0674 46.4009C12.4326 45.7649 12.0833 44.9224 12.0833 44.0268C12.0833 43.2055 12.3854 42.4137 12.94 41.7884L22.9421 30.2742C23.3371 31.0866 23.793 31.8688 24.2917 32.5701C25.7165 34.5788 26.8166 36.8491 27.3044 38.6541L18.5522 47.4052ZM43.4481 55.5708C41.0692 51.8868 38.2725 50.2419 36.0046 48.9062C34.4187 47.9727 33.0499 47.1668 32.0799 45.8724C30.173 43.3271 30.1187 42.1718 30.0479 40.7087C30.0313 40.3759 30.0148 40.0384 29.9818 39.682C29.7552 37.3739 28.2944 34.0321 26.2601 31.1706C24.4853 28.6713 23.3171 25.2587 24.9479 23.6751C25.0825 23.5466 25.2571 23.4392 25.6866 23.5264C27.5063 23.9005 30.4303 27.1738 31.1642 28.9356C32.0611 31.0903 34.4849 36.2422 37.6661 37.5225C38.0249 37.6713 38.4426 37.6299 38.773 37.4163C39.953 36.6516 40.4935 35.4598 40.8852 34.5901C40.9938 34.3483 41.1449 34.0178 41.1236 34.0061C41.6334 33.6638 41.8056 32.9948 41.5248 32.4496C41.2605 31.9349 40.7151 30.308 40.3205 29.055L44.9354 24.4396C45.1708 24.5865 45.3582 24.7237 45.4448 24.8078C46.9292 26.2487 48.8504 32.9086 49.9974 36.8876C50.3773 38.2056 50.7077 39.3573 50.9744 40.1739C51.9467 43.1617 54.3658 46.5412 55.3876 47.8912C54.441 49.7652 51.0238 55.2652 43.4481 55.5708Z" fill="url(#paint33_linear)"></path>
									<defs>
									<linearGradient id="paint33_linear" x1="58.1319" y1="30.9355" x2="-0.00275821" y2="30.9355" gradientUnits="userSpaceOnUse">
									<stop offset="0" stop-color="var(--main_color)"></stop>
									<stop offset="1" stop-color="var(--main_color_2)"></stop>
									</linearGradient>
									</defs>
									</svg>