<svg width="16" height="16" viewBox="0 0 16 16" fill="none" xmlns="http://www.w3.org/2000/svg"><path d="M1.92175 8.73779C1.89087 8.48047 1.875 8.22485 1.875 8C1.875 4.64368 4.64368 1.875 8 1.875C9.56555 1.875 11.0312 2.50623 12.1094 3.4906L11.5687 4.04065C11.4469 4.16248 11.4 4.34058 11.4469 4.5094C11.5032 4.6687 11.6344 4.79065 11.8031 4.82812C11.8975 4.84705 14.9973 5.84595 14.7999 5.80627C15.051 5.88989 15.4224 5.62207 15.3531 5.25317C15.3341 5.15869 14.6478 1.71521 14.6875 1.91248C14.65 1.74377 14.5281 1.60315 14.3594 1.55627C14.2001 1.5094 14.0219 1.55627 13.9 1.6781L13.4407 2.12805C12.025 0.806274 10.0812 0 8 0C3.60315 0 0 3.60315 0 8V8.01868C0 8.28296 0.012085 8.48718 0.0261231 8.64343C0.0447998 8.85046 0.197388 9.02002 0.401245 9.06091L1.36426 9.25342C1.67773 9.31616 1.95959 9.05334 1.92175 8.73779Z" fill="var(--main_color)"></path><path d="M15.6013 6.93836L14.6355 6.74158C14.3216 6.67761 14.0378 6.94068 14.0764 7.25769C14.1098 7.53125 14.1247 7.79724 14.1247 8C14.1247 11.3562 11.356 14.125 7.99971 14.125C6.43416 14.125 4.96846 13.4938 3.89033 12.5L4.43098 11.9594C4.55281 11.8375 4.59968 11.6594 4.55281 11.4906C4.49653 11.3312 4.36531 11.2094 4.19661 11.1719C4.10225 11.1528 1.00239 10.1541 1.19978 10.1937C1.04036 10.1657 0.880933 10.2125 0.777906 10.325C0.665357 10.4281 0.618482 10.5968 0.646558 10.7468C0.665601 10.8412 1.352 14.2534 1.31233 14.0562C1.34968 14.225 1.47163 14.3656 1.64033 14.4124C1.83601 14.4614 1.99934 14.4021 2.09968 14.2905L2.54976 13.8406C3.96528 15.1625 5.90913 16 7.99971 16C12.3966 16 15.9997 12.3969 15.9997 8V7.9718C15.9997 7.76404 15.9921 7.56006 15.9748 7.3573C15.957 7.15015 15.805 6.97998 15.6013 6.93836Z" fill="var(--main_color)"></path></svg>