<svg width="14" height="19" viewBox="0 0 14 19" xmlns="http://www.w3.org/2000/svg">
									<path d="M6.875 13.8281C6.54948 13.8281 6.25 13.776 5.97656 13.6719C5.71615 13.5547 5.47526 13.3854 5.25391 13.1641C5.03255 12.9427 4.86328 12.6953 4.74609 12.4219C4.64193 12.1484 4.58984 11.8555 4.58984 11.543V9.92188H11.0742C11.3607 9.92188 11.6276 9.86979 11.875 9.76562C12.1354 9.66146 12.3698 9.50521 12.5781 9.29688C12.7865 9.08854 12.9427 8.86068 13.0469 8.61328C13.151 8.35286 13.2031 8.07943 13.2031 7.79297C13.2031 7.49349 13.151 7.22005 13.0469 6.97266C12.9427 6.72526 12.7865 6.49089 12.5781 6.26953C12.3698 6.0612 12.1354 5.90495 11.875 5.80078C11.6276 5.69661 11.3607 5.64453 11.0742 5.64453H4.58984V2.30469C4.58984 1.99219 4.53125 1.69922 4.41406 1.42578C4.3099 1.15234 4.14714 0.904948 3.92578 0.683594C3.69141 0.449219 3.4375 0.279948 3.16406 0.175781C2.90365 0.0585938 2.61719 0 2.30469 0C1.97917 0 1.67969 0.0585938 1.40625 0.175781C1.13281 0.279948 0.885417 0.442708 0.664062 0.664062C0.442708 0.885417 0.273438 1.13281 0.15625 1.40625C0.0520833 1.67969 0 1.97917 0 2.30469V11.543C0 12.4935 0.16276 13.3789 0.488281 14.1992C0.826823 15.0065 1.33464 15.7422 2.01172 16.4062C2.67578 17.0833 3.41146 17.5911 4.21875 17.9297C5.03906 18.2682 5.92448 18.4375 6.875 18.4375H11.4258C11.7383 18.4375 12.0247 18.3789 12.2852 18.2617C12.5586 18.1576 12.8125 17.9883 13.0469 17.7539C13.2682 17.5326 13.431 17.2852 13.5352 17.0117C13.6523 16.7383 13.7109 16.4453 13.7109 16.1328C13.7109 15.8203 13.6523 15.5273 13.5352 15.2539C13.431 14.9805 13.2682 14.7331 13.0469 14.5117C12.8125 14.2773 12.5586 14.1081 12.2852 14.0039C12.0247 13.8867 11.7383 13.8281 11.4258 13.8281H6.875Z"></path>
									</svg>