<svg viewBox="0 0 15 21" width="15" height="21" xmlns="http://www.w3.org/2000/svg"><path d="M7.56641 0.386719C6.5638 0.347656 5.61328 0.510417 4.71484 0.875C3.82943 1.22656 3.05469 1.72786 2.39062 2.37891C1.72656 3.01693 1.19922 3.77865 0.808594 4.66406C0.43099 5.53646 0.242188 6.46745 0.242188 7.45703C0.242188 8.58984 0.476562 9.66406 0.945312 10.6797C1.42708 11.6823 2.01302 12.6784 2.70312 13.668C3.40625 14.6576 4.14844 15.6667 4.92969 16.6953C5.71094 17.724 6.40755 18.8307 7.01953 20.0156C7.08464 20.1328 7.18229 20.1914 7.3125 20.1914C7.45573 20.1914 7.5599 20.1328 7.625 20.0156C8.17188 18.9479 8.79036 17.9583 9.48047 17.0469C10.1836 16.1224 10.8607 15.224 11.5117 14.3516C12.1628 13.4661 12.7422 12.5807 13.25 11.6953C13.7708 10.7969 14.1159 9.83333 14.2852 8.80469C14.4674 7.73698 14.4219 6.70833 14.1484 5.71875C13.875 4.72917 13.4258 3.84375 12.8008 3.0625C12.1888 2.28125 11.4336 1.64974 10.5352 1.16797C9.63672 0.686198 8.64714 0.425781 7.56641 0.386719ZM7.3125 11.168C6.29688 11.168 5.42448 10.8099 4.69531 10.0938C3.96615 9.36458 3.60156 8.48568 3.60156 7.45703C3.60156 6.44141 3.96615 5.56901 4.69531 4.83984C5.42448 4.11068 6.29688 3.74609 7.3125 3.74609C8.34115 3.74609 9.21354 4.11068 9.92969 4.83984C10.6589 5.56901 11.0234 6.44141 11.0234 7.45703C11.0234 8.48568 10.6589 9.36458 9.92969 10.0938C9.21354 10.8099 8.34115 11.168 7.3125 11.168Z"></path></svg>