<svg width="20" height="20" viewBox="0 0 20 20" xmlns="http://www.w3.org/2000/svg">
									<path d="M20 11.7188V19.1016H15.7227V12.207C15.7227 11.3346 15.5534 10.6315 15.2148 10.0977C14.8763 9.5638 14.3164 9.29688 13.5352 9.29688C12.9492 9.29688 12.474 9.45964 12.1094 9.78516C11.7578 10.1107 11.5039 10.4688 11.3477 10.8594C11.2826 11.0026 11.237 11.1654 11.2109 11.3477C11.1979 11.5299 11.1914 11.7188 11.1914 11.9141V19.1016H6.91406C6.91406 19.1016 6.91406 18.4896 6.91406 17.2656C6.92708 16.0286 6.93359 14.6419 6.93359 13.1055C6.93359 11.569 6.93359 10.1107 6.93359 8.73047C6.93359 7.35026 6.92708 6.51042 6.91406 6.21094H11.1914V8.04688C11.1914 8.04688 11.1849 8.05339 11.1719 8.06641C11.1719 8.06641 11.1719 8.07292 11.1719 8.08594H11.1914V8.04688C11.4779 7.60417 11.9076 7.14193 12.4805 6.66016C13.0664 6.16536 13.9258 5.91797 15.0586 5.91797C15.7617 5.91797 16.4128 6.03516 17.0117 6.26953C17.6237 6.49089 18.151 6.84245 18.5938 7.32422C19.0365 7.80599 19.3815 8.41146 19.6289 9.14062C19.8763 9.86979 20 10.7292 20 11.7188ZM2.42188 0C1.69271 0 1.10677 0.214844 0.664062 0.644531C0.221354 1.0612 0 1.58854 0 2.22656C0 2.83854 0.214844 3.36589 0.644531 3.80859C1.07422 4.23828 1.64714 4.45312 2.36328 4.45312H2.40234C3.14453 4.45312 3.73047 4.23828 4.16016 3.80859C4.60286 3.36589 4.82422 2.83854 4.82422 2.22656C4.8112 1.58854 4.58984 1.0612 4.16016 0.644531C3.74349 0.214844 3.16406 0 2.42188 0ZM0.253906 19.1016H4.55078V6.21094H0.253906V19.1016Z"></path>
									</svg>