<svg width="20" height="18" viewBox="0 0 20 18" fill="none" xmlns="http://www.w3.org/2000/svg"><path d="M19.844 3.13703C19.6965 2.94012 19.4648 2.82422 19.2187 2.82422H4.50324L4.07422 1.35863C3.97676 1.02566 3.67141 0.796875 3.32445 0.796875H0.78125C0.349766 0.796875 0 1.14664 0 1.57812C0 2.00961 0.349766 2.35938 0.78125 2.35938H2.7391C2.8532 2.74918 5.73898 12.6073 5.85555 13.0055C5.95301 13.3384 6.2584 13.5672 6.60531 13.5672H16.5314C16.8783 13.5672 17.1837 13.3384 17.2811 13.0055L19.9685 3.82496C20.0377 3.58887 19.9915 3.33395 19.844 3.13703ZM15.9461 12.0047H7.19066L4.96066 4.38672H18.1761L15.9461 12.0047Z"></path><path d="M7.79776 17.2031C8.38024 17.2031 8.85244 16.7309 8.85244 16.1484C8.85244 15.5659 8.38024 15.0938 7.79776 15.0938C7.21527 15.0938 6.74307 15.5659 6.74307 16.1484C6.74307 16.7309 7.21527 17.2031 7.79776 17.2031Z"></path><path d="M15.3385 17.2031C15.921 17.2031 16.3932 16.7309 16.3932 16.1484C16.3932 15.5659 15.921 15.0938 15.3385 15.0938C14.7561 15.0938 14.2839 15.5659 14.2839 16.1484C14.2839 16.7309 14.7561 17.2031 15.3385 17.2031Z"></path></svg>