<svg width="16" height="15" viewBox="0 0 16 15" fill="none" xmlns="http://www.w3.org/2000/svg"><path d="M15.2598 2.64258H14.5742C14.5391 2.51367 14.4629 2.41406 14.3457 2.34375C14.2402 2.26172 14.1172 2.2207 13.9766 2.2207H12.6934C12.5527 2.2207 12.4297 2.26172 12.3242 2.34375C12.2188 2.41406 12.1426 2.51367 12.0957 2.64258H11.1992V0.726562C11.1992 0.550781 11.1348 0.398438 11.0059 0.269531C10.8887 0.140625 10.7422 0.0761719 10.5664 0.0761719H5.43359C5.25781 0.0761719 5.10547 0.140625 4.97656 0.269531C4.85938 0.398438 4.80078 0.550781 4.80078 0.726562V2.64258H3.9043C3.85742 2.51367 3.78125 2.41406 3.67578 2.34375C3.57031 2.26172 3.44727 2.2207 3.30664 2.2207H2.02344C1.88281 2.2207 1.75977 2.26172 1.6543 2.34375C1.54883 2.41406 1.47266 2.51367 1.42578 2.64258H0.740234C0.564453 2.64258 0.412109 2.70703 0.283203 2.83594C0.166016 2.95312 0.107422 3.09961 0.107422 3.27539V13.5234C0.107422 13.6992 0.166016 13.8516 0.283203 13.9805C0.412109 14.1094 0.564453 14.1738 0.740234 14.1738H15.2598C15.4355 14.1738 15.582 14.1094 15.6992 13.9805C15.8281 13.8516 15.8926 13.6992 15.8926 13.5234V3.27539C15.8926 3.09961 15.8281 2.95312 15.6992 2.83594C15.582 2.70703 15.4355 2.64258 15.2598 2.64258ZM6.08398 1.35938H9.91602V2.64258H6.08398V1.35938ZM14.6094 12.8906H1.39062V8.19727H6.08398V8.83008C6.08398 9.00586 6.14258 9.1582 6.25977 9.28711C6.38867 9.41602 6.54102 9.48047 6.7168 9.48047H9.2832C9.45898 9.48047 9.60547 9.41602 9.72266 9.28711C9.85156 9.1582 9.91602 9.00586 9.91602 8.83008V8.19727H14.6094V12.8906ZM7.36719 8.19727V6.91406H8.63281V8.19727H7.36719ZM14.6094 6.91406H9.91602V6.26367C9.91602 6.08789 9.85156 5.94141 9.72266 5.82422C9.60547 5.69531 9.45898 5.63086 9.2832 5.63086H6.7168C6.54102 5.63086 6.38867 5.69531 6.25977 5.82422C6.14258 5.94141 6.08398 6.08789 6.08398 6.26367V6.91406H1.39062V3.92578H14.6094V6.91406Z" fill="var(--main_color)"></path></svg>