<svg width="15" height="17" viewBox="0 0 15 17" fill="none" xmlns="http://www.w3.org/2000/svg"><path d="M12.4321 2.03674H9.78591C9.65391 0.892094 8.68002 0 7.50052 0C6.32106 0 5.34731 0.892059 5.21531 2.03674H2.56898C1.49808 2.03674 0.626953 2.90812 0.626953 3.97897V4.07863C0.626953 4.89697 1.1365 5.5974 1.85431 5.8828V15.0578C1.85431 16.1287 2.72554 17 3.79637 17H11.2048C12.2756 17 13.1468 16.1286 13.1468 15.0578V5.88283C13.8645 5.5974 14.3741 4.89697 14.3741 4.07866V3.97901C14.3741 2.90812 13.5029 2.03674 12.4321 2.03674ZM7.50052 0.921095C8.17136 0.921095 8.7313 1.40192 8.85519 2.03674H6.1461C6.26996 1.40189 6.82994 0.921095 7.50052 0.921095ZM12.2257 15.0578C12.2257 15.6208 11.7676 16.0789 11.2047 16.0789H3.79633C3.23347 16.0789 2.77537 15.6208 2.77537 15.0578V6.02086H12.2257V15.0578ZM13.453 4.07863C13.453 4.64167 12.9949 5.0998 12.4321 5.0998H2.56898C2.00611 5.0998 1.54801 4.64167 1.54801 4.07863V3.97897C1.54801 3.41594 2.00611 2.9578 2.56898 2.9578H12.4321C12.995 2.9578 13.4531 3.41594 13.4531 3.97897L13.453 4.07863Z" fill="var(--main_color)"></path><path d="M5.03168 14.901C5.28604 14.901 5.49222 14.6947 5.49222 14.4405V9.25504C5.49222 9.00076 5.286 8.79448 5.03168 8.79448C4.77737 8.79448 4.57115 9.00076 4.57115 9.25504V14.4405C4.57112 14.6948 4.77733 14.901 5.03168 14.901Z" fill="var(--main_color)"></path><path d="M7.50012 14.901C7.75447 14.901 7.96068 14.6947 7.96068 14.4405V9.25504C7.96068 9.00076 7.7544 8.79448 7.50012 8.79448C7.2458 8.79448 7.03959 9.00076 7.03959 9.25504V14.4405C7.03959 14.6948 7.24577 14.901 7.50012 14.901Z" fill="var(--main_color)"></path><path d="M9.96936 14.901C10.2237 14.901 10.4299 14.6947 10.4299 14.4405V9.25504C10.4299 9.00076 10.2236 8.79448 9.96936 8.79448C9.71497 8.79448 9.50879 9.00076 9.50879 9.25504V14.4405C9.50876 14.6948 9.71504 14.901 9.96936 14.901Z" fill="var(--main_color)"></path></svg>