<svg width="506" height="506" class="testimonial-svg" viewBox="0 0 506 506" fill="none" xmlns="http://www.w3.org/2000/svg" xmlns:xlink="http://www.w3.org/1999/xlink">
							    <mask id="mask0" maskUnits="userSpaceOnUse" x="0" y="0" width="506" height="506">
							        <path d="M73.6543 431.394C60.6565 397.967 64.0607 361.134 73.9638 327.707C85.1048 290.256 103.983 254.971 118.218 218.758C134.93 176.973 135.858 134.26 129.359 89.6901C124.408 52.8578 127.812 12.9304 173.304 2.40692C197.443 -3.16435 223.129 1.78789 247.268 8.59721C348.156 37.0726 481.539 91.5472 503.202 199.258C527.959 321.207 383.126 439.132 278.525 486.488C205.489 519.296 106.768 516.82 73.6543 431.394Z" fill="url(#paint1_linear)"></path>
							        <path d="M42.7072 307.397C47.9682 304.921 52.6103 301.207 56.6334 296.873C66.5365 286.969 71.7975 274.279 77.368 261.898C83.248 248.589 95.0079 234.661 95.9363 219.185C97.1742 199.067 78.9154 189.781 62.2039 199.995C46.1113 209.59 31.8756 221.971 19.8062 236.518C8.97469 249.208 0 264.374 0 280.779C0 290.064 3.09472 299.659 10.2126 305.54C17.021 311.111 26.3051 312.349 34.6609 310.182C37.4461 309.563 40.2314 308.635 42.7072 307.397Z" fill="url(#paint1_linear)"></path>
							    </mask>
							    <g mask="url(#mask0)">
							        <rect opacity="0.9" width="904" height="591" transform="matrix(-1 0 0 1 654 -43)" fill="url(#pattern0)"></rect>
							    </g>
							    <defs>
							        <pattern id="pattern0" patternContentUnits="objectBoundingBox" width="1" height="1">
							            <use xlink:href="#testimonials-1" transform="translate(0 -0.0101108) scale(0.000471698 0.000721515)"></use>
							        </pattern>
							        <linearGradient id="paint1_linear" x1="-17.8833" y1="330.485" x2="181.651" y2="168.313" gradientUnits="userSpaceOnUse">
							            <stop offset="0" stop-color="#FF3D71"></stop>
							            <stop offset="1" stop-color="#FFDD35"></stop>
							        </linearGradient>
							        <linearGradient id="paint1_linear" x1="-17.8833" y1="330.485" x2="181.651" y2="168.313" gradientUnits="userSpaceOnUse">
							            <stop offset="0" stop-color="#FF3D71"></stop>
							            <stop offset="1" stop-color="#FFDD35"></stop>
							        </linearGradient>
							        <image id="testimonials-1" width="2120" height="1414" xlink:href="img/testimonials-1.jpg"></image>
							    </defs>
							</svg>