<svg width="28" height="18" viewBox="0 0 28 18" xmlns="http://www.w3.org/2000/svg">
											<path d="M9.80469 10.7833H14.1602C13.9648 11.3172 13.6914 11.812 13.3398 12.2677C13.0013 12.7234 12.6042 13.1205 12.1484 13.4591C11.6927 13.7846 11.1849 14.0385 10.625 14.2208C10.0781 14.3901 9.4987 14.4747 8.88672 14.4747C8.15755 14.4747 7.46094 14.338 6.79688 14.0646C6.14583 13.7781 5.57292 13.394 5.07812 12.9122C4.58333 12.4304 4.1862 11.8705 3.88672 11.2325C3.58724 10.5815 3.42448 9.89138 3.39844 9.16221C3.3724 8.36794 3.49609 7.62575 3.76953 6.93565C4.05599 6.23252 4.44661 5.62055 4.94141 5.09971C5.44922 4.56586 6.04167 4.14919 6.71875 3.84971C7.40885 3.55023 8.14453 3.40049 8.92578 3.40049C9.64193 3.40049 10.319 3.5307 10.957 3.79112C11.5951 4.03851 12.1615 4.38357 12.6562 4.82627C12.7734 4.93044 12.9102 4.98252 13.0664 4.98252C13.2227 4.98252 13.3594 4.93044 13.4766 4.82627L15.0781 3.32237C15.1953 3.20518 15.2539 3.06195 15.2539 2.89268C15.2539 2.71039 15.1953 2.56065 15.0781 2.44346C14.6875 2.07888 14.2643 1.74685 13.8086 1.44737C13.3529 1.14789 12.8711 0.893983 12.3633 0.68565C11.8685 0.477316 11.3477 0.314556 10.8008 0.197368C10.2539 0.0801809 9.69401 0.0150768 9.12109 0.00205592C7.88411 -0.0239857 6.71224 0.197368 5.60547 0.666118C4.51172 1.12185 3.54818 1.75336 2.71484 2.56065C1.89453 3.36794 1.23698 4.31846 0.742188 5.41221C0.260417 6.49294 0.0130208 7.64529 0 8.86924C0 10.1062 0.227865 11.2716 0.683594 12.3653C1.15234 13.4591 1.79036 14.4161 2.59766 15.2364C3.40495 16.0437 4.34896 16.6883 5.42969 17.17C6.52344 17.6388 7.6888 17.8731 8.92578 17.8731C10.1237 17.8731 11.25 17.6518 12.3047 17.2091C13.3594 16.7664 14.2839 16.1674 15.0781 15.4122C15.8854 14.657 16.5299 13.7651 17.0117 12.7364C17.5065 11.7078 17.7865 10.6075 17.8516 9.43565C17.8516 9.40961 17.8516 9.06456 17.8516 8.40049C17.8646 7.72341 17.8711 7.38487 17.8711 7.38487H9.80469C9.63542 7.38487 9.49219 7.44346 9.375 7.56065C9.25781 7.67784 9.19922 7.82107 9.19922 7.99034V10.1778C9.19922 10.3471 9.25781 10.4903 9.375 10.6075C9.49219 10.7247 9.63542 10.7833 9.80469 10.7833ZM25.2539 7.58018V5.45127C25.2539 5.30805 25.2018 5.18435 25.0977 5.08018C24.9935 4.97601 24.8698 4.92393 24.7266 4.92393H22.9297C22.7865 4.92393 22.6628 4.97601 22.5586 5.08018C22.4544 5.18435 22.4023 5.30805 22.4023 5.45127V7.58018H20.2539C20.1107 7.58018 19.987 7.63226 19.8828 7.73643C19.7786 7.8406 19.7266 7.9643 19.7266 8.10752V9.92393C19.7266 10.0672 19.7786 10.1909 19.8828 10.295C19.987 10.3862 20.1107 10.4317 20.2539 10.4317H22.4023V12.5802C22.4023 12.7234 22.4544 12.8471 22.5586 12.9513C22.6628 13.0554 22.7865 13.1075 22.9297 13.1075H24.7266C24.8698 13.1075 24.9935 13.0554 25.0977 12.9513C25.2018 12.8471 25.2539 12.7234 25.2539 12.5802V10.4317H27.4023C27.5456 10.4317 27.6693 10.3862 27.7734 10.295C27.8776 10.1909 27.9297 10.0672 27.9297 9.92393V8.10752C27.9297 7.9643 27.8776 7.8406 27.7734 7.73643C27.6693 7.63226 27.5456 7.58018 27.4023 7.58018H25.2539Z"></path>
											</svg>