<svg width="67" height="47" viewBox="0 0 67 47" fill="none" xmlns="http://www.w3.org/2000/svg">
									<path d="M1.49363 19.2806C0.66872 19.2806 0 19.9493 0 20.7742V25.7128C0 26.5377 0.66872 27.2064 1.49363 27.2064C2.31854 27.2064 2.98726 26.5377 2.98726 25.7128V20.7742C2.98726 19.9491 2.31854 19.2806 1.49363 19.2806Z" fill="url(#paint100_linear)"></path>
									<path d="M7.31306 19.2806C6.48815 19.2806 5.81943 19.9493 5.81943 20.7742V25.7128C5.81943 26.5377 6.48815 27.2064 7.31306 27.2064C8.13797 27.2064 8.80669 26.5377 8.80669 25.7128V20.7742C8.80669 19.9491 8.13818 19.2806 7.31306 19.2806Z" fill="url(#paint21_linear)"></path>
									<path d="M13.1325 17.1909C12.3076 17.1909 11.6389 17.8597 11.6389 18.6846V27.8021C11.6389 28.627 12.3076 29.2957 13.1325 29.2957C13.9574 29.2957 14.6261 28.627 14.6261 27.8021V18.6846C14.6261 17.8597 13.9574 17.1909 13.1325 17.1909Z" fill="url(#paint22_linearq)"></path>
									<path d="M18.9517 14.7218C18.1268 14.7218 17.4581 15.3905 17.4581 16.2154V30.2716C17.4581 31.0965 18.1268 31.7652 18.9517 31.7652C19.7767 31.7652 20.4454 31.0965 20.4454 30.2716V16.2154C20.4454 15.3903 19.7769 14.7218 18.9517 14.7218Z" fill="url(#paint13_linear)"></path>
									<path d="M24.7715 10.3528C23.9466 10.3528 23.2778 11.0215 23.2778 11.8464V34.64C23.2778 35.465 23.9466 36.1337 24.7715 36.1337C25.5964 36.1337 26.2651 35.465 26.2651 34.64V11.8464C26.2651 11.0215 25.5964 10.3528 24.7715 10.3528Z" fill="url(#paint14_linear)"></path>
									<path d="M30.5906 0.000488281C29.7657 0.000488281 29.097 0.669208 29.097 1.49412V44.9923C29.097 45.8172 29.7657 46.4859 30.5906 46.4859C31.4155 46.4859 32.0842 45.8172 32.0842 44.9923V1.49412C32.0842 0.669208 31.4155 0.000488281 30.5906 0.000488281Z" fill="url(#paint15_linear)"></path>
									<path d="M36.4096 3.70456C35.5847 3.70456 34.916 4.37328 34.916 5.19819V41.2886C34.916 42.1135 35.5847 42.7822 36.4096 42.7822C37.2345 42.7822 37.9032 42.1135 37.9032 41.2886V5.19819C37.9032 4.37307 37.2345 3.70456 36.4096 3.70456Z" fill="url(#paint16_linear)"></path>
									<path d="M42.2288 11.1125C41.4039 11.1125 40.7351 11.7812 40.7351 12.6062V33.8804C40.7351 34.7053 41.4039 35.374 42.2288 35.374C43.0537 35.374 43.7224 34.7053 43.7224 33.8804V12.6062C43.7224 11.7812 43.0537 11.1125 42.2288 11.1125Z" fill="url(#paint17_linear)"></path>
									<path d="M48.0485 15.576C47.2236 15.576 46.5548 16.2447 46.5548 17.0696V29.4164C46.5548 30.2413 47.2236 30.91 48.0485 30.91C48.8734 30.91 49.5421 30.2413 49.5421 29.4164V17.0696C49.5421 16.2447 48.8734 15.576 48.0485 15.576Z" fill="url(#paint18_linear)"></path>
									<path d="M53.8679 17.476C53.043 17.476 52.3743 18.1448 52.3743 18.9697V27.5173C52.3743 28.3422 53.043 29.0109 53.8679 29.0109C54.6928 29.0109 55.3615 28.3422 55.3615 27.5173V18.9697C55.3615 18.1448 54.6928 17.476 53.8679 17.476Z" fill="url(#paint19_linear)"></path>
									<path d="M59.6872 19.2806C58.8623 19.2806 58.1935 19.9493 58.1935 20.7742V25.7128C58.1935 26.5377 58.8623 27.2064 59.6872 27.2064C60.5121 27.2064 61.1808 26.5377 61.1808 25.7128V20.7742C61.1808 19.9491 60.5121 19.2806 59.6872 19.2806Z" fill="url(#paint110_linear)"></path>
									<path d="M65.5064 19.2806C64.6815 19.2806 64.0128 19.9493 64.0128 20.7742V25.7128C64.0128 26.5377 64.6815 27.2064 65.5064 27.2064C66.3313 27.2064 67.0001 26.5377 67.0001 25.7128V20.7742C67.0001 19.9491 66.3313 19.2806 65.5064 19.2806Z" fill="url(#paint111_linear)"></path>
									<defs>
									<linearGradient id="paint100_linear" x1="67.1524" y1="24.794" x2="-0.00318621" y2="24.794" gradientUnits="userSpaceOnUse">
									<stop offset="0" stop-color="var(--main_color)"></stop>
									<stop offset="1" stop-color="var(--main_color_2)"></stop>
									</linearGradient>
									<linearGradient id="paint21_linear" x1="67.1524" y1="24.794" x2="-0.00318621" y2="24.794" gradientUnits="userSpaceOnUse">
									<stop offset="0" stop-color="var(--main_color)"></stop>
									<stop offset="1" stop-color="var(--main_color_2)"></stop>
									</linearGradient>
									<linearGradient id="paint22_linearq" x1="67.1524" y1="24.794" x2="-0.00318621" y2="24.794" gradientUnits="userSpaceOnUse">
									<stop offset="0" stop-color="var(--main_color)"></stop>
									<stop offset="1" stop-color="var(--main_color_2)"></stop>
									</linearGradient>
									<linearGradient id="paint13_linear" x1="67.1524" y1="24.794" x2="-0.00318621" y2="24.794" gradientUnits="userSpaceOnUse">
									<stop offset="0" stop-color="var(--main_color)"></stop>
									<stop offset="1" stop-color="var(--main_color_2)"></stop>
									</linearGradient>
									<linearGradient id="paint14_linear" x1="67.1524" y1="24.794" x2="-0.00318621" y2="24.794" gradientUnits="userSpaceOnUse">
									<stop offset="0" stop-color="var(--main_color)"></stop>
									<stop offset="1" stop-color="var(--main_color_2)"></stop>
									</linearGradient>
									<linearGradient id="paint15_linear" x1="67.1524" y1="24.794" x2="-0.00318621" y2="24.794" gradientUnits="userSpaceOnUse">
									<stop offset="0" stop-color="var(--main_color)"></stop>
									<stop offset="1" stop-color="var(--main_color_2)"></stop>
									</linearGradient>
									<linearGradient id="paint16_linear" x1="67.1524" y1="24.794" x2="-0.00318621" y2="24.794" gradientUnits="userSpaceOnUse">
									<stop offset="0" stop-color="var(--main_color)"></stop>
									<stop offset="1" stop-color="var(--main_color_2)"></stop>
									</linearGradient>
									<linearGradient id="paint17_linear" x1="67.1524" y1="24.794" x2="-0.00318621" y2="24.794" gradientUnits="userSpaceOnUse">
									<stop offset="0" stop-color="var(--main_color)"></stop>
									<stop offset="1" stop-color="var(--main_color_2)"></stop>
									</linearGradient>
									<linearGradient id="paint18_linear" x1="67.1524" y1="24.794" x2="-0.00318621" y2="24.794" gradientUnits="userSpaceOnUse">
									<stop offset="0" stop-color="var(--main_color)"></stop>
									<stop offset="1" stop-color="var(--main_color_2)"></stop>
									</linearGradient>
									<linearGradient id="paint19_linear" x1="67.1524" y1="24.794" x2="-0.00318621" y2="24.794" gradientUnits="userSpaceOnUse">
									<stop offset="0" stop-color="var(--main_color)"></stop>
									<stop offset="1" stop-color="var(--main_color_2)"></stop>
									</linearGradient>
									<linearGradient id="paint110_linear" x1="67.1524" y1="24.794" x2="-0.00318621" y2="24.794" gradientUnits="userSpaceOnUse">
									<stop offset="0" stop-color="var(--main_color)"></stop>
									<stop offset="1" stop-color="var(--main_color_2)"></stop>
									</linearGradient>
									<linearGradient id="paint111_linear" x1="67.1524" y1="24.794" x2="-0.00318621" y2="24.794" gradientUnits="userSpaceOnUse">
									<stop offset="0" stop-color="var(--main_color)"></stop>
									<stop offset="1" stop-color="var(--main_color_2)"></stop>
									</linearGradient>
									</defs>
									</svg>